<svg width="32" height="32" viewBox="0 0 32 32" fill="none" xmlns="http://www.w3.org/2000/svg">
  <rect width="32" height="32" rx="8" fill="#2563EB"/>
  <path d="M16 8C12.6863 8 10 10.6863 10 14C10 15.7652 10.8036 17.3486 12.0796 18.4375C10.796 19.5641 10 21.1872 10 23V24H22V23C22 21.1872 21.204 19.5641 19.9204 18.4375C21.1964 17.3486 22 15.7652 22 14C22 10.6863 19.3137 8 16 8ZM16 10C18.2091 10 20 11.7909 20 14C20 16.2091 18.2091 18 16 18C13.7909 18 12 16.2091 12 14C12 11.7909 13.7909 10 16 10Z" fill="white"/>
</svg>